<?xml version="1.0" encoding="UTF-8"?>
<!-- Generator: visioncortex VTracer 0.6.3 -->
<svg version="1.1" xmlns="http://www.w3.org/2000/svg" width="1280" height="1280">
<path d="M0 0 C1.6 -0 1.6 -0 3.24 -0.01 C6.81 -0.01 10.38 -0.01 13.94 -0.01 C16.53 -0.01 19.12 -0.01 21.71 -0.01 C27.33 -0.02 32.96 -0.02 38.58 -0.02 C46.94 -0.02 55.31 -0.02 63.67 -0.03 C79.48 -0.04 95.28 -0.04 111.09 -0.04 C123.3 -0.04 135.5 -0.04 147.71 -0.04 C151.23 -0.05 154.74 -0.05 158.26 -0.05 C159.57 -0.05 159.57 -0.05 160.91 -0.05 C185.49 -0.05 210.07 -0.06 234.65 -0.06 C235.58 -0.06 236.5 -0.06 237.46 -0.06 C242.15 -0.06 246.85 -0.06 251.54 -0.06 C252.48 -0.06 253.41 -0.06 254.37 -0.06 C256.25 -0.06 258.14 -0.06 260.03 -0.06 C289.37 -0.06 318.7 -0.06 348.04 -0.08 C381.02 -0.09 413.99 -0.1 446.96 -0.1 C450.48 -0.1 454 -0.1 457.52 -0.1 C458.38 -0.1 459.25 -0.1 460.14 -0.1 C474.06 -0.1 487.99 -0.11 501.91 -0.11 C515.91 -0.12 529.91 -0.12 543.91 -0.12 C552.22 -0.11 560.53 -0.12 568.84 -0.13 C575.05 -0.13 581.27 -0.13 587.48 -0.12 C589.99 -0.12 592.49 -0.12 595 -0.13 C629.87 -0.2 629.87 -0.2 639.88 6.13 C641.11 6.82 642.34 7.51 643.57 8.19 C645.21 9.15 645.21 9.15 646.88 10.13 C647.71 10.54 648.53 10.95 649.38 11.38 C652.52 13.58 654.72 16.22 657.17 19.14 C658.99 21.32 658.99 21.32 661.69 23.88 C663.73 25.97 664.7 27.51 665.88 30.13 C666.42 30.83 666.95 31.53 667.51 32.25 C668.88 34.13 668.88 34.13 668.88 36.13 C669.54 36.46 670.2 36.79 670.88 37.13 C673.43 41.78 673.5 46.94 673.88 52.13 C674.54 52.13 675.2 52.13 675.88 52.13 C675.93 72.43 675.96 92.74 675.98 113.04 C675.99 122.47 676.01 131.9 676.03 141.33 C676.05 149.54 676.06 157.76 676.07 165.97 C676.07 170.32 676.08 174.67 676.09 179.03 C676.11 183.12 676.11 187.21 676.11 191.3 C676.11 192.81 676.11 194.31 676.12 195.82 C676.13 197.87 676.13 199.92 676.12 201.97 C676.12 203.69 676.12 203.69 676.13 205.45 C675.88 208.13 675.88 208.13 673.88 210.13 C673.57 212.13 673.57 212.13 673.51 214.38 C673.11 218.92 671.62 221.45 668.88 225.13 C668.11 227.35 668.11 227.35 667.88 229.13 C666.89 229.13 665.9 229.13 664.88 229.13 C664.55 230.12 664.22 231.11 663.88 232.13 C663.22 232.13 662.56 232.13 661.88 232.13 C661.86 232.97 661.84 233.82 661.82 234.69 C660.51 239.48 657.8 242.16 653.88 245.13 C651.07 245.82 651.07 245.82 648.88 246.13 C648.2 247.45 647.53 248.79 646.88 250.13 C644.57 251.19 644.57 251.19 641.88 252.13 C641.12 252.64 640.35 253.16 639.57 253.69 C635.96 255.62 632.94 255.78 628.88 256.13 C628.88 256.79 628.88 257.45 628.88 258.13 C566.95 258.16 505.03 258.19 443.1 258.21 C442.18 258.21 441.27 258.21 440.33 258.21 C420.42 258.22 400.52 258.23 380.62 258.23 C370.86 258.23 361.1 258.24 351.34 258.24 C350.36 258.24 349.39 258.24 348.39 258.24 C316.89 258.25 285.38 258.26 253.88 258.28 C221.51 258.3 189.15 258.31 156.78 258.32 C152.22 258.32 147.65 258.32 143.08 258.32 C142.18 258.32 141.29 258.32 140.36 258.32 C125.87 258.32 111.37 258.33 96.88 258.34 C82.32 258.35 67.77 258.36 53.21 258.36 C44.55 258.35 35.9 258.36 27.24 258.37 C21.46 258.38 15.69 258.38 9.91 258.37 C6.62 258.37 3.32 258.37 0.03 258.38 C-3.52 258.39 -7.06 258.38 -10.6 258.37 C-11.63 258.38 -12.67 258.39 -13.74 258.39 C-14.67 258.39 -15.61 258.38 -16.58 258.38 C-17.79 258.38 -17.79 258.38 -19.04 258.38 C-21.12 258.13 -21.12 258.13 -24.12 256.13 C-27.23 255.17 -30.31 254.3 -33.49 253.63 C-34.03 253.46 -34.57 253.3 -35.12 253.13 C-35.45 252.47 -35.78 251.81 -36.12 251.13 C-36.9 250.82 -37.69 250.51 -38.49 250.19 C-41.17 249.11 -42.16 248.17 -44.12 246.13 C-44.84 245.74 -45.56 245.34 -46.31 244.94 C-51.72 241.46 -56.35 236.96 -59.12 231.13 C-59.78 230.47 -60.44 229.81 -61.12 229.13 C-62.95 225.54 -64.52 221.83 -66.12 218.13 C-66.45 217.41 -66.77 216.68 -67.11 215.94 C-69.23 210.94 -69.46 206.52 -69.12 201.13 C-69.78 200.8 -70.44 200.47 -71.12 200.13 C-71.14 181.83 -71.16 163.53 -71.17 145.24 C-71.18 136.74 -71.18 128.24 -71.19 119.75 C-71.2 112.34 -71.21 104.94 -71.21 97.53 C-71.21 93.61 -71.22 89.69 -71.23 85.77 C-71.23 82.08 -71.23 78.39 -71.23 74.7 C-71.23 72.7 -71.24 70.7 -71.24 68.7 C-71.24 67.51 -71.24 66.31 -71.24 65.08 C-71.24 64.05 -71.24 63.01 -71.24 61.95 C-71.12 59.23 -70.7 56.78 -70.12 54.13 C-70.02 53.08 -69.91 52.02 -69.81 50.94 C-69.06 46.77 -67.7 43.25 -66.06 39.36 C-65.04 37.03 -65.04 37.03 -64.12 34.13 C-63.46 33.47 -62.8 32.81 -62.12 32.13 C-61.46 31.1 -60.8 30.07 -60.12 29 C-59.46 28.05 -58.8 27.11 -58.12 26.13 C-57.46 26.13 -56.8 26.13 -56.12 26.13 C-56.04 25.39 -55.97 24.65 -55.89 23.89 C-54.92 20.43 -53.53 19.25 -50.81 16.94 C-50.03 16.27 -49.25 15.59 -48.44 14.9 C-46.37 13.32 -44.45 12.26 -42.12 11.13 C-41.16 10.4 -41.16 10.4 -40.17 9.66 C-28.07 0.62 -14.53 -0.03 0 0 Z M653.88 239.13 C654.21 239.79 654.54 240.45 654.88 241.13 C655.21 240.47 655.54 239.81 655.88 239.13 C655.22 239.13 654.56 239.13 653.88 239.13 Z " fill="#4982FD" transform="translate(128.11933517456055,645.8713655471802)"/>
<path d="M0 0 C0.99 0.01 1.97 0.02 2.99 0.03 C4.12 0.03 5.25 0.04 6.41 0.05 C8.28 0.07 8.28 0.07 10.19 0.1 C11.5 0.1 12.8 0.11 14.15 0.12 C17.74 0.15 21.33 0.19 24.92 0.23 C28.67 0.27 32.42 0.3 36.17 0.33 C43.28 0.39 50.38 0.46 57.49 0.53 C65.57 0.61 73.66 0.69 81.75 0.76 C98.39 0.9 115.02 1.06 131.66 1.23 C131.66 6.23 130.13 9.49 127.72 13.86 C127.2 14.82 126.67 15.78 126.13 16.77 C124.66 19.23 124.66 19.23 122.66 21.23 C121.98 22.89 121.32 24.56 120.66 26.23 C119.72 27.94 118.74 29.63 117.72 31.29 C117.22 32.13 116.72 32.97 116.2 33.83 C114.66 36.23 114.66 36.23 113.09 38.29 C111.67 40.22 110.67 42.07 109.66 44.23 C105.56 52.69 100.87 60.41 95.66 68.23 C94.1 70.69 92.77 72.95 91.72 75.67 C90.42 78.82 88.57 81.4 86.66 84.23 C85.63 86.22 84.62 88.21 83.66 90.23 C83 90.23 82.34 90.23 81.66 90.23 C81.6 90.89 81.54 91.55 81.47 92.23 C80.59 95.49 79.1 97.84 77.26 100.64 C74.8 104.63 72.67 108.79 70.52 112.95 C68.78 116.27 66.93 119.26 64.66 122.23 C64.33 123.22 64 124.21 63.66 125.23 C63 125.23 62.34 125.23 61.66 125.23 C61.6 125.89 61.54 126.55 61.47 127.23 C60.55 130.65 59.06 132.96 57.13 135.9 C54.88 139.46 52.96 143.19 50.99 146.91 C49.66 149.23 49.66 149.23 47.66 151.23 C47.39 151.91 47.12 152.59 46.85 153.29 C44.32 159.55 40.96 165.04 36.66 170.23 C35.97 171.55 35.3 172.89 34.66 174.23 C33.83 175.94 33 177.65 32.16 179.36 C31.74 180.22 31.32 181.09 30.88 181.99 C29.66 184.23 29.66 184.23 27.66 186.23 C26.99 187.89 26.32 189.56 25.66 191.23 C24.67 192.98 23.65 194.71 22.6 196.42 C20.53 199.77 20.53 199.77 18.66 203.23 C20.6 203.25 20.6 203.25 22.58 203.26 C34.84 203.36 47.11 203.46 59.37 203.57 C65.68 203.62 71.98 203.68 78.29 203.73 C84.39 203.78 90.49 203.83 96.59 203.88 C98.9 203.9 101.21 203.92 103.52 203.94 C115.04 204.03 126.56 204.19 138.07 204.69 C139 204.73 139.92 204.76 140.88 204.8 C141.73 204.84 142.58 204.88 143.45 204.93 C144.2 204.96 144.94 204.99 145.71 205.03 C147.66 205.23 147.66 205.23 150.66 206.23 C148.75 210.79 145.39 213.57 141.85 216.91 C139.61 219.12 139.61 219.12 138.21 221.68 C136.3 224.83 133.96 227.01 131.29 229.54 C127.51 233.19 124.47 236.73 121.91 241.32 C119.89 244.41 117.22 246.78 114.53 249.27 C112.57 251.17 112.57 251.17 111.29 253.6 C108.83 257.58 105.44 260.5 102.04 263.68 C98.64 266.96 96.76 269.94 94.66 274.23 C92.32 276.79 92.32 276.79 89.72 279.23 C87.02 281.84 84.75 284.1 82.66 287.23 C79.97 291.27 76.54 294.35 73 297.67 C70.54 300.36 69.13 302.91 67.66 306.23 C67 306.23 66.34 306.23 65.66 306.23 C65.45 306.77 65.25 307.3 65.04 307.86 C63.44 310.61 61.52 312.43 59.2 314.57 C57.55 316.23 57.55 316.23 56.34 318.55 C53.84 322.54 50.46 325.48 47.04 328.68 C43.64 331.96 41.76 334.94 39.66 339.23 C37.32 341.79 37.32 341.79 34.72 344.23 C32.02 346.84 29.75 349.1 27.66 352.23 C24.97 356.27 21.54 359.35 18 362.67 C15.54 365.36 14.13 367.91 12.66 371.23 C12 371.23 11.34 371.23 10.66 371.23 C10.45 371.77 10.25 372.3 10.04 372.86 C8.44 375.61 6.52 377.43 4.2 379.57 C2.55 381.23 2.55 381.23 1.34 383.55 C-1.16 387.54 -4.54 390.48 -7.96 393.68 C-11.32 396.92 -13.47 399.87 -15.34 404.23 C-16 404.23 -16.66 404.23 -17.34 404.23 C-17.74 405.1 -17.74 405.1 -18.14 406 C-19.39 408.32 -20.76 410.03 -22.53 411.98 C-23.46 413.02 -23.46 413.02 -24.41 414.09 C-25.37 415.15 -25.37 415.15 -26.34 416.23 C-27.51 417.56 -28.67 418.9 -29.84 420.23 C-31.63 422.29 -33.44 424.34 -35.26 426.37 C-36.2 427.42 -36.2 427.42 -37.15 428.48 C-37.71 429.1 -38.28 429.73 -38.86 430.37 C-40.35 432.24 -41.35 434.06 -42.34 436.23 C-43 436.23 -43.66 436.23 -44.34 436.23 C-44.55 436.77 -44.75 437.3 -44.96 437.86 C-46.56 440.61 -48.48 442.43 -50.8 444.57 C-52.45 446.23 -52.45 446.23 -53.66 448.55 C-56.16 452.54 -59.54 455.48 -62.96 458.68 C-66.32 461.92 -68.47 464.87 -70.34 469.23 C-71 469.23 -71.66 469.23 -72.34 469.23 C-72.59 469.81 -72.84 470.39 -73.09 470.98 C-74.94 474.31 -77.62 476.55 -80.37 479.13 C-82.42 481.17 -82.42 481.17 -83.81 483.68 C-85.54 486.56 -87.52 488.68 -89.9 491.04 C-90.69 491.83 -91.47 492.62 -92.28 493.44 C-94.34 495.23 -94.34 495.23 -96.34 495.23 C-96.34 496.55 -96.34 497.87 -96.34 499.23 C-97.33 498.9 -98.32 498.57 -99.34 498.23 C-99.01 495.59 -98.68 492.95 -98.34 490.23 C-97.68 490.23 -97.02 490.23 -96.34 490.23 C-96.34 488.91 -96.34 487.59 -96.34 486.23 C-95.68 485.9 -95.02 485.57 -94.34 485.23 C-93.93 482.91 -93.59 480.57 -93.34 478.23 C-92.68 478.23 -92.02 478.23 -91.34 478.23 C-91.24 477.57 -91.13 476.91 -91.03 476.23 C-90.3 473.07 -89.25 470.2 -88.06 467.2 C-87.28 465.22 -87.28 465.22 -86.87 463.05 C-86.61 462.15 -86.61 462.15 -86.34 461.23 C-85.68 460.9 -85.02 460.57 -84.34 460.23 C-84.15 458.68 -84.15 458.68 -83.96 457.11 C-83.37 453.41 -82.35 451.33 -80.39 448.2 C-78.72 445.06 -77.93 441.7 -77.05 438.27 C-76.34 436.23 -76.34 436.23 -74.34 435.23 C-73.98 432.9 -73.65 430.57 -73.34 428.23 C-72.31 425.14 -71.65 423.54 -69.34 421.23 C-68.48 418.66 -67.81 416.06 -67.12 413.45 C-66.34 411.23 -66.34 411.23 -64.34 410.23 C-63.84 408.28 -63.35 406.32 -62.91 404.35 C-62.13 401.44 -60.68 398.92 -59.34 396.23 C-58.63 392.99 -58.63 392.99 -58.34 390.23 C-57.68 390.23 -57.02 390.23 -56.34 390.23 C-56.2 389.65 -56.07 389.07 -55.93 388.48 C-55.37 386.35 -54.69 384.35 -53.9 382.29 C-53.63 381.59 -53.37 380.9 -53.09 380.18 C-51.27 375.48 -49.32 370.86 -47.34 366.23 C-46.12 363.25 -44.97 360.25 -43.84 357.23 C-41.82 351.83 -39.61 346.53 -37.34 341.23 C-36.12 338.25 -34.97 335.25 -33.84 332.23 C-31.82 326.83 -29.61 321.53 -27.34 316.23 C-26.12 313.25 -24.97 310.25 -23.84 307.23 C-22.27 303.03 -20.63 298.88 -18.78 294.79 C-17.06 290.92 -17.06 290.92 -16.34 285.23 C-49.34 284.9 -82.34 284.57 -116.34 284.23 C-117.54 279.41 -117.54 279.41 -116.34 276.23 C-115.68 275.9 -115.02 275.57 -114.34 275.23 C-113.84 273.25 -113.35 271.26 -112.9 269.27 C-112.34 267.23 -112.34 267.23 -110.9 264.86 C-108.92 261.53 -108.07 258.16 -107.08 254.44 C-106.34 252.23 -106.34 252.23 -104.34 250.23 C-103.64 247.91 -102.97 245.57 -102.34 243.23 C-100.82 239.17 -99.05 235.21 -97.34 231.23 C-95.83 227.56 -94.45 223.86 -93.06 220.15 C-92.19 217.83 -91.27 215.53 -90.34 213.23 C-89.78 211.84 -89.78 211.84 -89.21 210.42 C-88.93 209.7 -88.64 208.97 -88.34 208.23 C-87.68 208.23 -87.02 208.23 -86.34 208.23 C-86.67 207.24 -87 206.25 -87.34 205.23 C-86.36 203.55 -85.36 201.89 -84.34 200.23 C-83.65 197.9 -82.99 195.57 -82.34 193.23 C-81.07 189.87 -79.71 186.55 -78.34 183.23 C-77.68 183.23 -77.02 183.23 -76.34 183.23 C-76.67 182.24 -77 181.25 -77.34 180.23 C-76.36 178.55 -75.36 176.88 -74.34 175.23 C-73.63 172.54 -73.63 172.54 -73.34 170.23 C-73.01 170.23 -72.68 170.23 -72.34 170.23 C-71.91 168.65 -71.91 168.65 -71.46 167.04 C-70.57 164 -69.57 161.14 -68.34 158.23 C-67.68 158.23 -67.02 158.23 -66.34 158.23 C-66.42 157.57 -66.5 156.91 -66.59 156.23 C-66.29 152.6 -64.99 150.33 -63.29 147.16 C-62.17 144.9 -61.78 142.7 -61.34 140.23 C-60.68 139.57 -60.02 138.91 -59.34 138.23 C-58.78 136.58 -58.29 134.91 -57.84 133.23 C-56.56 128.45 -56.56 128.45 -54.34 126.23 C-53.74 124.54 -53.2 122.83 -52.71 121.11 C-52.45 120.2 -52.19 119.29 -51.92 118.35 C-51.73 117.65 -51.54 116.95 -51.34 116.23 C-50.68 116.23 -50.02 116.23 -49.34 116.23 C-49.15 114.41 -49.15 114.41 -48.96 112.54 C-48.4 108.04 -47.62 104.51 -44.34 101.23 C-43.48 98.66 -42.81 96.06 -42.12 93.45 C-41.34 91.23 -41.34 91.23 -39.34 90.23 C-38.98 87.9 -38.65 85.57 -38.34 83.23 C-37.31 80.14 -36.65 78.54 -34.34 76.23 C-33.79 74.75 -33.29 73.25 -32.84 71.73 C-31.95 68.77 -31.56 67.45 -29.34 65.23 C-28.64 62.91 -27.97 60.57 -27.34 58.23 C-25.82 54.17 -24.05 50.21 -22.34 46.23 C-21.97 45.28 -21.6 44.33 -21.21 43.36 C-20.34 41.23 -20.34 41.23 -19.34 40.23 C-18.97 37.9 -18.64 35.57 -18.34 33.23 C-17.68 33.23 -17.02 33.23 -16.34 33.23 C-16.22 32.51 -16.09 31.79 -15.96 31.04 C-15.35 28.27 -14.45 25.83 -13.34 23.23 C-12.68 23.23 -12.02 23.23 -11.34 23.23 C-11.83 21.75 -11.83 21.75 -12.34 20.23 C-11.36 18.55 -10.36 16.89 -9.34 15.23 C-8.66 12.9 -7.99 10.57 -7.34 8.23 C-3.78 0.37 -3.78 0.37 0 0 Z " fill="#F8BF2F" transform="translate(1060.3388233184814,396.76952171325684)"/>
<path d="M0 0 C1.34 -0 1.34 -0 2.71 -0.01 C4.17 -0.01 4.17 -0.01 5.66 -0 C7.15 -0 7.15 -0 8.67 -0.01 C10.77 -0.01 12.87 -0.01 14.98 -0 C18.21 0 21.44 -0 24.66 -0.01 C26.7 -0.01 28.74 -0.01 30.78 -0 C31.75 -0.01 32.73 -0.01 33.73 -0.01 C34.62 -0.01 35.52 -0 36.45 0 C37.24 0 38.03 0 38.85 0 C40.79 0.13 40.79 0.13 42.79 1.13 C43.12 47 43.45 92.87 43.79 140.13 C60.62 140.13 77.45 140.13 94.79 140.13 C96.62 141.96 96.03 144.89 96.1 147.35 C96.15 148.61 96.19 149.87 96.23 151.17 C96.27 152.51 96.31 153.85 96.35 155.19 C96.39 156.54 96.44 157.88 96.48 159.23 C96.59 162.53 96.69 165.83 96.79 169.13 C97.17 168.16 97.56 167.2 97.96 166.2 C114.79 124.13 114.79 124.13 115.73 121.78 C116.55 119.72 117.37 117.66 118.19 115.61 C120.53 109.72 122.89 103.84 125.35 98 C127.52 92.83 129.54 87.6 131.54 82.35 C133.13 78.25 134.83 74.21 136.54 70.16 C137.84 67 139.07 63.82 140.29 60.63 C142.27 55.43 144.38 50.29 146.54 45.16 C147.84 42 149.07 38.82 150.29 35.63 C152.29 30.37 154.41 25.17 156.6 19.98 C158.03 16.54 159.38 13.07 160.7 9.58 C162.16 6.28 163.98 3.25 165.79 0.13 C171 0.03 176.22 -0.04 181.43 -0.09 C183.2 -0.11 184.98 -0.14 186.75 -0.17 C189.3 -0.22 191.85 -0.24 194.4 -0.26 C195.19 -0.28 195.99 -0.3 196.81 -0.32 C202.31 -0.33 202.31 -0.33 204.75 1.99 C205.96 4.48 206.81 6.92 207.6 9.57 C209.04 14.11 210.74 18.33 212.79 22.63 C215.2 27.7 217.03 32.73 218.72 38.07 C220.3 42.58 222.34 46.83 224.42 51.12 C225.77 54.09 226.77 57.03 227.79 60.13 C229.04 63.37 230.35 66.59 231.66 69.82 C234.21 76.12 236.66 82.44 238.94 88.85 C239.76 91.05 240.68 93.18 241.66 95.32 C243.58 99.51 245.19 103.8 246.79 108.13 C248.35 112.35 249.9 116.54 251.79 120.63 C254.56 126.66 256.74 132.93 259.05 139.14 C261.66 146.17 264.36 153.16 267.29 160.07 C270.07 166.66 272.44 173.37 274.79 180.13 C272.29 182.62 271.53 182.38 268.09 182.39 C266.63 182.4 266.63 182.4 265.14 182.41 C263.56 182.4 263.56 182.4 261.94 182.4 C260.86 182.4 259.78 182.4 258.67 182.4 C256.38 182.4 254.1 182.4 251.81 182.39 C248.3 182.38 244.79 182.39 241.28 182.4 C239.07 182.4 236.85 182.4 234.63 182.4 C233.58 182.4 232.52 182.4 231.43 182.41 C230.46 182.4 229.48 182.39 228.48 182.39 C227.62 182.39 226.76 182.39 225.87 182.38 C223.79 182.13 223.79 182.13 221.79 180.13 C221.29 178.52 220.86 176.89 220.47 175.25 C218.62 168.02 218.62 168.02 213.79 157.13 C193.99 157.13 174.19 157.13 153.79 157.13 C150.97 164.18 148.36 171.15 145.94 178.32 C144.79 181.13 144.79 181.13 142.79 182.13 C140.85 182.23 138.91 182.26 136.97 182.26 C135.12 182.26 135.12 182.26 133.22 182.26 C131.84 182.26 130.46 182.26 129.08 182.26 C127.64 182.26 126.19 182.26 124.74 182.26 C120.81 182.27 116.87 182.27 112.93 182.26 C108.82 182.26 104.71 182.26 100.6 182.27 C93.69 182.27 86.79 182.26 79.89 182.26 C71.89 182.25 63.9 182.26 55.91 182.26 C49.05 182.27 42.2 182.27 35.35 182.26 C31.25 182.26 27.15 182.26 23.06 182.27 C19.21 182.27 15.36 182.27 11.5 182.26 C10.09 182.26 8.67 182.26 7.25 182.26 C5.33 182.26 3.4 182.26 1.47 182.26 C-0.15 182.26 -0.15 182.26 -1.8 182.26 C-4.21 182.13 -4.21 182.13 -5.21 181.13 C-5.31 178.8 -5.35 176.51 -5.34 174.18 C-5.34 173.45 -5.34 172.71 -5.34 171.95 C-5.35 169.47 -5.35 166.99 -5.34 164.51 C-5.34 162.74 -5.35 160.96 -5.35 159.19 C-5.35 154.37 -5.35 149.54 -5.35 144.71 C-5.34 139.67 -5.35 134.64 -5.35 129.6 C-5.35 121.13 -5.35 112.67 -5.34 104.2 C-5.34 94.4 -5.34 84.6 -5.34 74.8 C-5.35 66.41 -5.35 58.01 -5.35 49.61 C-5.35 44.59 -5.35 39.56 -5.35 34.54 C-5.35 29.82 -5.35 25.1 -5.34 20.38 C-5.34 18.64 -5.34 16.9 -5.35 15.16 C-5.35 12.8 -5.34 10.44 -5.34 8.08 C-5.34 7.38 -5.34 6.68 -5.35 5.96 C-5.32 0.73 -5.23 0.01 0 0 Z M183.79 60.13 C181.95 64.67 180.49 69.11 179.35 73.88 C177.66 80.9 175.35 87.65 172.97 94.46 C170.31 102.19 167.79 109.92 167.79 118.13 C179.01 118.13 190.23 118.13 201.79 118.13 C200.12 109.8 200.12 109.8 197.71 101.88 C196.46 98.16 195.38 94.4 194.29 90.63 C192.8 85.52 191.27 80.44 189.55 75.4 C187.86 70.34 186.34 65.23 184.79 60.13 C184.46 60.13 184.13 60.13 183.79 60.13 Z " fill="#000000" transform="translate(202.212646484375,403.87060546875)"/>
<path d="M0 0 C0.79 0 1.58 0 2.4 0 C3.75 -0 3.75 -0 5.12 -0.01 C6.09 0 7.06 0.01 8.06 0.02 C9.06 0.02 10.05 0.02 11.07 0.02 C13.18 0.02 15.28 0.03 17.38 0.04 C20.61 0.06 23.84 0.06 27.07 0.06 C29.11 0.07 31.15 0.07 33.19 0.08 C34.16 0.08 35.13 0.08 36.13 0.08 C37.03 0.09 37.92 0.1 38.85 0.1 C39.64 0.11 40.43 0.11 41.24 0.11 C43.06 0.25 43.06 0.25 44.06 1.25 C44.18 3.27 44.23 5.29 44.25 7.31 C44.26 8.61 44.28 9.91 44.3 11.25 C44.3 11.94 44.31 12.64 44.32 13.36 C44.34 15.54 44.37 17.71 44.39 19.89 C44.46 25.29 44.52 30.7 44.58 36.11 C44.63 40.67 44.69 45.23 44.75 49.8 C44.78 51.95 44.8 54.1 44.82 56.25 C44.83 57.55 44.85 58.85 44.87 60.18 C44.88 61.33 44.89 62.48 44.91 63.67 C44.77 66.18 44.77 66.18 46.06 67.25 C47.75 67.34 49.44 67.36 51.13 67.36 C52.21 67.36 53.29 67.36 54.4 67.36 C55.58 67.36 56.76 67.35 57.97 67.34 C59.17 67.34 60.36 67.34 61.6 67.34 C65.44 67.33 69.28 67.32 73.12 67.31 C75.72 67.3 78.31 67.3 80.91 67.3 C87.29 67.29 93.68 67.27 100.06 67.25 C100.07 66.44 100.07 65.63 100.08 64.79 C100.16 57.17 100.25 49.55 100.35 41.93 C100.4 38.01 100.44 34.09 100.48 30.17 C100.52 26.39 100.56 22.61 100.62 18.83 C100.63 17.38 100.65 15.94 100.66 14.5 C100.68 12.48 100.71 10.46 100.74 8.44 C100.75 7.29 100.77 6.14 100.78 4.96 C101.06 2.25 101.06 2.25 103.06 0.25 C105 0 105 0 107.4 0 C108.75 -0 108.75 -0 110.12 -0.01 C111.09 0 112.06 0.01 113.06 0.02 C114.06 0.02 115.05 0.02 116.07 0.02 C118.18 0.02 120.28 0.03 122.38 0.04 C125.61 0.06 128.84 0.06 132.07 0.06 C134.11 0.07 136.15 0.07 138.19 0.08 C139.16 0.08 140.13 0.08 141.13 0.08 C142.03 0.09 142.92 0.1 143.85 0.1 C144.64 0.11 145.43 0.11 146.24 0.11 C148.06 0.25 148.06 0.25 149.06 1.25 C149.16 3.57 149.19 5.87 149.18 8.19 C149.19 8.93 149.19 9.66 149.19 10.42 C149.19 12.9 149.19 15.39 149.19 17.87 C149.19 19.64 149.19 21.41 149.19 23.18 C149.2 28.01 149.2 32.84 149.19 37.66 C149.19 42.7 149.19 47.74 149.19 52.78 C149.2 61.24 149.19 69.71 149.19 78.17 C149.18 87.97 149.18 97.77 149.19 107.57 C149.19 115.97 149.2 124.37 149.19 132.77 C149.19 137.79 149.19 142.81 149.19 147.84 C149.2 152.56 149.2 157.28 149.19 162 C149.19 163.74 149.19 165.48 149.19 167.21 C149.19 169.58 149.19 171.94 149.18 174.3 C149.19 175 149.19 175.69 149.19 176.41 C149.17 181.13 149.17 181.13 148.06 182.25 C146.66 182.35 145.25 182.39 143.85 182.39 C142.95 182.4 142.06 182.41 141.13 182.41 C139.68 182.41 139.68 182.41 138.19 182.42 C137.19 182.42 136.2 182.42 135.18 182.43 C133.07 182.43 130.97 182.43 128.87 182.43 C125.64 182.43 122.41 182.45 119.18 182.47 C117.14 182.47 115.1 182.48 113.06 182.48 C112.09 182.48 111.12 182.49 110.12 182.5 C109.22 182.5 108.32 182.49 107.4 182.49 C106.61 182.49 105.82 182.49 105 182.49 C103.06 182.25 103.06 182.25 101.06 180.25 C100.78 177.39 100.78 177.39 100.74 173.69 C100.73 173.01 100.72 172.34 100.71 171.65 C100.68 169.42 100.66 167.19 100.64 164.96 C100.63 163.41 100.61 161.87 100.59 160.33 C100.53 156.26 100.49 152.19 100.46 148.12 C100.42 143.97 100.37 139.83 100.32 135.68 C100.22 127.53 100.13 119.39 100.06 111.25 C92.39 111.22 84.71 111.2 77.04 111.19 C74.43 111.19 71.82 111.18 69.2 111.17 C65.46 111.16 61.71 111.15 57.97 111.15 C56.2 111.14 56.2 111.14 54.4 111.13 C53.32 111.13 52.24 111.13 51.13 111.13 C50.17 111.13 49.21 111.13 48.23 111.13 C46.08 111 46.08 111 45.06 112.25 C44.94 114.39 44.89 116.53 44.87 118.68 C44.86 119.35 44.85 120.02 44.84 120.71 C44.83 122.18 44.81 123.64 44.8 125.1 C44.78 127.41 44.75 129.72 44.72 132.03 C44.66 136.94 44.61 141.84 44.56 146.75 C44.5 152.43 44.44 158.11 44.37 163.79 C44.34 166.07 44.32 168.36 44.3 170.64 C44.28 172.03 44.26 173.42 44.25 174.82 C44.23 176.04 44.22 177.26 44.21 178.51 C44.06 181.25 44.06 181.25 43.06 182.25 C41.66 182.35 40.25 182.39 38.85 182.39 C37.95 182.4 37.06 182.41 36.13 182.41 C35.16 182.41 34.19 182.41 33.19 182.42 C31.7 182.42 31.7 182.42 30.18 182.43 C28.07 182.43 25.97 182.43 23.87 182.43 C20.64 182.43 17.41 182.45 14.18 182.47 C12.14 182.47 10.1 182.48 8.06 182.48 C7.09 182.48 6.12 182.49 5.12 182.5 C4.22 182.5 3.32 182.49 2.4 182.49 C1.61 182.49 0.82 182.49 0 182.49 C-1.94 182.25 -1.94 182.25 -3.94 180.25 C-4.19 177.23 -4.19 177.23 -4.2 173.26 C-4.2 172.54 -4.2 171.81 -4.21 171.06 C-4.21 168.61 -4.21 166.16 -4.2 163.71 C-4.2 161.96 -4.21 160.21 -4.21 158.46 C-4.22 153.7 -4.22 148.93 -4.21 144.17 C-4.21 139.19 -4.21 134.21 -4.21 129.24 C-4.22 120.88 -4.21 112.52 -4.2 104.16 C-4.19 94.48 -4.2 84.8 -4.21 75.13 C-4.22 66.83 -4.22 58.54 -4.21 50.24 C-4.21 45.28 -4.21 40.32 -4.21 35.36 C-4.22 30.7 -4.22 26.04 -4.2 21.38 C-4.2 19.66 -4.2 17.95 -4.21 16.23 C-4.21 13.9 -4.21 11.57 -4.2 9.23 C-4.2 7.92 -4.19 6.62 -4.19 5.27 C-3.92 1.92 -3.53 0.45 0 0 Z " fill="#000000" transform="translate(626.9421539306641,403.7527618408203)"/>
<path d="M0 0 C0.92 0.26 1.84 0.51 2.79 0.77 C16.7 5.15 27.17 14.62 34.86 26.75 C38.03 33 39.55 38.99 40.25 45.94 C40.39 47.09 40.39 47.09 40.52 48.26 C40.73 50.17 40.87 52.08 41 54 C40 55 40 55 38.1 55.12 C37.26 55.12 36.43 55.12 35.57 55.11 C34.63 55.11 33.69 55.11 32.72 55.11 C31.7 55.11 30.67 55.1 29.62 55.1 C28.58 55.1 27.54 55.09 26.46 55.09 C23.12 55.09 19.78 55.08 16.44 55.06 C14.18 55.06 11.92 55.05 9.66 55.05 C4.11 55.04 -1.45 55.02 -7 55 C-11.46 44.61 -11.46 44.61 -13 40 C-19.08 38.38 -25.95 38.24 -32 40 C-32 40.66 -32 41.32 -32 42 C-32.66 42 -33.32 42 -34 42 C-36.73 47.45 -36.54 52.59 -35.25 58.38 C-34.23 61.08 -34.23 61.08 -32.06 62.31 C-31.38 62.54 -30.7 62.77 -30 63 C-29.01 63.33 -28.02 63.66 -27 64 C-27 64.66 -27 65.32 -27 66 C-25.92 66.16 -25.92 66.16 -24.82 66.32 C-21.74 67.06 -19.55 68.22 -16.81 69.81 C-13.33 71.77 -9.93 73.52 -6.19 74.94 C3.25 78.55 12.72 83.2 21 89 C21 89.66 21 90.32 21 91 C21.59 91.27 22.17 91.54 22.77 91.82 C27.28 94.21 31.14 97.29 33.44 101.88 C33.62 102.58 33.81 103.28 34 104 C34.66 104 35.32 104 36 104 C40.62 113.04 41.73 120.61 41.5 130.69 C41.5 131.94 41.51 133.19 41.51 134.49 C41.43 141.54 40.79 147.5 38 154 C37.73 154.68 37.46 155.36 37.18 156.06 C32.05 168.57 20.6 176.6 8.75 181.89 C-8.48 188.87 -32.14 189.93 -49.5 183.06 C-51 182.39 -52.51 181.7 -54 181 C-55.18 180.55 -56.35 180.09 -57.56 179.62 C-61.98 177.54 -66.2 175.09 -70 172 C-70 171.34 -70 170.68 -70 170 C-70.64 169.73 -71.28 169.46 -71.94 169.19 C-74 168 -74 168 -75 165 C-75.66 165 -76.32 165 -77 165 C-81.33 159.22 -84.08 152.91 -86 146 C-86.35 144.94 -86.71 143.88 -87.07 142.79 C-88.14 138.42 -88.22 134.53 -88.12 130.06 C-88.12 129.28 -88.11 128.5 -88.1 127.7 C-88.07 125.8 -88.04 123.9 -88 122 C-85.7 120.85 -84.34 120.85 -81.78 120.81 C-80.91 120.79 -80.04 120.78 -79.14 120.76 C-75.17 120.71 -71.19 120.67 -67.22 120.65 C-65.12 120.63 -63.02 120.61 -60.92 120.57 C-57.89 120.51 -54.87 120.49 -51.85 120.48 C-50.91 120.45 -49.97 120.43 -49 120.41 C-46.56 120.42 -44.37 120.47 -42 121 C-39.21 124.06 -39.03 125.66 -38.69 129.81 C-38.2 134.98 -35.57 138.37 -32 142 C-27.63 144.98 -24.24 145.56 -19 145 C-15.78 143.64 -15.78 143.64 -13 142 C-12.01 141.67 -11.02 141.34 -10 141 C-7.06 135.33 -6.61 130.1 -8.26 124.01 C-9.67 119.78 -9.67 119.78 -12.87 116.9 C-13.57 116.6 -14.27 116.31 -15 116 C-16.38 115.21 -17.75 114.42 -19.12 113.62 C-23.93 110.95 -28.87 108.94 -34 107 C-48.73 101.4 -64.89 94.6 -75 82 C-75 81.34 -75 80.68 -75 80 C-75.66 80 -76.32 80 -77 80 C-77.96 78.3 -78.92 76.59 -79.88 74.88 C-80.68 73.45 -80.68 73.45 -81.49 71.99 C-86.62 61.82 -86.96 48.06 -84.16 37.02 C-81.52 29.58 -77.31 23.78 -72 18 C-71.44 17.36 -70.89 16.73 -70.32 16.07 C-63.97 9.21 -55.72 4.25 -47 1 C-46.11 0.65 -45.23 0.3 -44.31 -0.06 C-29.56 -4.24 -14.68 -4.38 0 0 Z " fill="#000000" transform="translate(567,403)"/>
<path d="M0 0 C12.85 10.63 21.64 26.5 23.32 43.07 C24.7 64.08 19.51 79.95 5.7 95.95 C-5.02 107.44 -20.17 113.8 -35.76 114.38 C-37.48 114.39 -39.21 114.4 -40.93 114.39 C-41.84 114.38 -42.76 114.38 -43.7 114.37 C-62.85 114.03 -78.48 106.76 -92.49 93.7 C-104.62 80.81 -108.15 63.93 -107.88 46.86 C-107.38 31.46 -99.74 16.09 -88.97 5.14 C-82.92 -0.31 -76.43 -4.23 -69.12 -7.74 C-68.52 -8.03 -67.92 -8.32 -67.3 -8.62 C-45.61 -18.54 -18.82 -13.53 0 0 Z " fill="#FBFCFD" transform="translate(465.6796875,726.92578125)"/>
<path d="M0 0 C0.92 0 1.84 0 2.79 0.01 C3.75 0 4.72 0 5.71 0 C8.92 -0 12.12 -0 15.32 0 C17.54 0 19.75 0 21.97 -0 C26.62 -0 31.27 0 35.92 0.01 C41.9 0.01 47.87 0.01 53.85 0 C58.43 -0 63 -0 67.58 0 C69.79 0 71.99 0 74.19 -0 C77.27 -0 80.34 0 83.42 0.01 C84.34 0 85.26 0 86.21 0 C92.49 0.02 92.49 0.02 93.6 1.14 C93.71 4.08 93.74 7 93.74 9.95 C93.74 10.83 93.74 11.72 93.74 12.63 C93.74 14.5 93.74 16.37 93.73 18.25 C93.73 21.12 93.73 24 93.74 26.88 C93.74 28.69 93.74 30.51 93.74 32.32 C93.74 33.19 93.74 34.06 93.74 34.95 C93.72 41.02 93.72 41.02 92.6 42.14 C90.92 42.23 89.22 42.25 87.53 42.25 C86.45 42.25 85.37 42.25 84.26 42.25 C82.49 42.24 82.49 42.24 80.69 42.23 C79.5 42.23 78.3 42.23 77.07 42.23 C73.22 42.22 69.38 42.21 65.54 42.2 C62.94 42.19 60.35 42.19 57.75 42.18 C51.37 42.17 44.99 42.15 38.6 42.14 C38.6 51.38 38.6 60.62 38.6 70.14 C42.11 70.12 45.61 70.11 49.22 70.1 C52.6 70.09 55.99 70.09 59.37 70.08 C61.73 70.08 64.09 70.07 66.44 70.06 C69.83 70.05 73.21 70.04 76.59 70.04 C77.65 70.03 78.7 70.03 79.79 70.02 C80.77 70.02 81.75 70.02 82.77 70.02 C83.63 70.02 84.49 70.02 85.38 70.02 C87.6 70.14 87.6 70.14 90.6 71.14 C92.23 74.39 91.77 77.96 91.77 81.54 C91.78 82.79 91.78 82.79 91.78 84.06 C91.79 85.83 91.79 87.59 91.79 89.36 C91.79 92.06 91.81 94.76 91.83 97.46 C91.83 99.17 91.83 100.89 91.83 102.6 C91.84 103.41 91.85 104.22 91.86 105.05 C91.84 108.94 91.81 110.83 89.6 114.14 C87.43 114.5 87.43 114.5 84.7 114.48 C83.16 114.48 83.16 114.48 81.6 114.48 C80.5 114.46 79.39 114.44 78.25 114.43 C77.12 114.42 75.99 114.42 74.83 114.42 C71.21 114.4 67.6 114.36 63.98 114.32 C61.53 114.31 59.08 114.29 56.64 114.28 C50.62 114.25 44.61 114.2 38.6 114.14 C38.61 114.97 38.61 115.81 38.61 116.67 C38.63 124.55 38.65 132.42 38.66 140.29 C38.66 144.34 38.67 148.39 38.68 152.43 C38.69 156.34 38.7 160.24 38.7 164.14 C38.7 165.64 38.7 167.13 38.71 168.62 C38.72 170.71 38.72 172.79 38.72 174.87 C38.72 176.06 38.72 177.25 38.72 178.47 C38.6 181.14 38.6 181.14 37.6 182.14 C36.23 182.23 34.85 182.26 33.47 182.26 C32.15 182.27 32.15 182.27 30.81 182.27 C29.85 182.27 28.9 182.27 27.92 182.27 C26.46 182.27 26.46 182.27 24.97 182.27 C22.91 182.27 20.85 182.27 18.78 182.27 C15.62 182.26 12.45 182.27 9.28 182.27 C7.29 182.27 5.29 182.27 3.29 182.27 C2.34 182.27 1.38 182.27 0.4 182.27 C-0.48 182.27 -1.36 182.27 -2.26 182.26 C-3.04 182.26 -3.81 182.26 -4.61 182.26 C-6.4 182.14 -6.4 182.14 -7.4 181.14 C-7.5 178.81 -7.53 176.51 -7.52 174.19 C-7.52 173.45 -7.53 172.72 -7.53 171.96 C-7.53 169.48 -7.53 167 -7.53 164.51 C-7.53 162.74 -7.53 160.97 -7.53 159.2 C-7.54 154.37 -7.53 149.55 -7.53 144.72 C-7.53 139.68 -7.53 134.64 -7.53 129.6 C-7.53 121.14 -7.53 112.67 -7.53 104.21 C-7.52 94.41 -7.52 84.61 -7.53 74.81 C-7.53 66.41 -7.53 58.01 -7.53 49.61 C-7.53 44.59 -7.53 39.57 -7.53 34.55 C-7.54 29.82 -7.53 25.1 -7.53 20.38 C-7.53 18.64 -7.53 16.91 -7.53 15.17 C-7.53 12.81 -7.53 10.44 -7.52 8.08 C-7.53 7.39 -7.53 6.69 -7.53 5.97 C-7.5 -0.53 -6.33 0.02 0 0 Z " fill="#000000" transform="translate(84.39598083496094,403.8644714355469)"/>
<path d="M0 0 C1.3 -0.01 2.61 -0.03 3.95 -0.04 C5.38 -0.04 6.81 -0.04 8.24 -0.05 C9.71 -0.05 11.18 -0.06 12.65 -0.07 C15.75 -0.08 18.84 -0.08 21.93 -0.08 C25.86 -0.08 29.79 -0.11 33.72 -0.14 C36.77 -0.16 39.81 -0.17 42.86 -0.17 C44.3 -0.17 45.75 -0.18 47.2 -0.19 C58.99 -0.31 71.6 1.11 80.81 9.29 C89.07 19.05 90.63 27.79 89.81 40.29 C88.5 48.38 82.39 53.71 76.81 59.29 C77.79 59.82 77.79 59.82 78.79 60.36 C86.81 64.89 92.24 69.64 95.81 78.29 C98 87.15 98.34 98.13 93.81 106.29 C86.67 116.68 77.75 120.2 65.76 122.68 C58.97 123.73 52.24 123.68 45.39 123.62 C43.86 123.62 42.34 123.61 40.81 123.61 C37.65 123.61 34.49 123.59 31.33 123.57 C27.27 123.54 23.22 123.53 19.16 123.53 C16.03 123.52 12.9 123.51 9.76 123.5 C8.27 123.5 6.77 123.49 5.27 123.49 C3.19 123.48 1.12 123.47 -0.96 123.45 C-2.14 123.44 -3.32 123.44 -4.54 123.43 C-7.19 123.29 -7.19 123.29 -8.19 122.29 C-8.29 120.74 -8.32 119.18 -8.32 117.63 C-8.32 116.62 -8.33 115.61 -8.33 114.57 C-8.33 113.46 -8.33 112.34 -8.33 111.19 C-8.34 110.03 -8.34 108.86 -8.34 107.66 C-8.35 104.44 -8.35 101.23 -8.35 98.02 C-8.36 95.35 -8.36 92.67 -8.36 89.99 C-8.37 83.68 -8.37 77.37 -8.37 71.06 C-8.37 64.53 -8.38 58.01 -8.4 51.49 C-8.41 45.9 -8.42 40.31 -8.42 34.72 C-8.42 31.38 -8.42 28.04 -8.43 24.69 C-8.44 20.97 -8.44 17.24 -8.43 13.52 C-8.44 12.4 -8.44 11.29 -8.45 10.14 C-8.44 9.13 -8.44 8.12 -8.43 7.08 C-8.43 6.2 -8.44 5.32 -8.44 4.41 C-7.85 -0.62 -4.15 0.03 0 0 Z " fill="#FBFCFD" transform="translate(128.18701171875,715.70947265625)"/>
<path d="M0 0 C1.01 0.01 2.01 0.02 3.05 0.04 C18.19 0.37 32.82 4.03 44.71 13.88 C46.69 16.38 46.69 16.38 46.77 18.35 C45.29 21.12 43.46 23.35 41.44 25.75 C40.63 26.71 39.82 27.68 38.99 28.67 C38.23 29.56 37.47 30.45 36.69 31.38 C35.67 32.6 34.64 33.83 33.62 35.06 C32.99 35.83 32.35 36.59 31.69 37.38 C31.13 37.06 30.57 36.75 30 36.42 C27.57 35.06 25.13 33.71 22.69 32.38 C22 31.99 21.3 31.61 20.59 31.22 C11.36 26.36 0.02 23.87 -10.25 26.96 C-21.09 31.17 -28.49 37.35 -33.31 47.91 C-37.97 59.37 -37.47 70.64 -32.93 82.14 C-28.55 90.92 -21.63 96.69 -12.71 100.48 C-8.14 101.68 -3.83 101.76 0.88 101.75 C1.81 101.75 2.74 101.75 3.7 101.75 C10.63 101.64 16.48 100.62 22.69 97.38 C23.35 97.04 24.01 96.72 24.69 96.38 C24.69 90.76 24.69 85.15 24.69 79.38 C22.89 79.31 21.1 79.25 19.25 79.19 C16.92 79.11 14.58 79.02 12.25 78.94 C11.07 78.9 9.88 78.86 8.66 78.82 C7.54 78.78 6.41 78.73 5.25 78.69 C4.21 78.65 3.17 78.62 2.1 78.58 C-0.31 78.38 -0.31 78.38 -1.31 77.38 C-1.56 73.9 -1.5 70.42 -1.5 66.94 C-1.51 65.96 -1.52 64.98 -1.54 63.97 C-1.54 63.03 -1.54 62.09 -1.54 61.13 C-1.55 60.27 -1.55 59.4 -1.56 58.51 C-1.31 56.38 -1.31 56.38 0.69 54.38 C2.82 54.13 2.82 54.13 5.49 54.13 C6.99 54.13 6.99 54.13 8.51 54.12 C9.59 54.13 10.67 54.14 11.79 54.14 C13.44 54.15 13.44 54.15 15.13 54.15 C17.47 54.15 19.81 54.16 22.15 54.17 C25.74 54.19 29.33 54.19 32.92 54.19 C35.19 54.19 37.46 54.2 39.72 54.21 C40.8 54.21 41.89 54.21 43 54.21 C44 54.22 44.99 54.22 46.02 54.23 C46.9 54.23 47.78 54.24 48.68 54.24 C50.69 54.38 50.69 54.38 51.69 55.38 C51.84 57.02 51.92 58.67 51.98 60.32 C52.03 61.9 52.03 61.9 52.08 63.52 C52.21 68.37 52.3 73.23 52.37 78.08 C52.41 80.64 52.48 83.2 52.57 85.76 C52.7 89.44 52.76 93.13 52.8 96.82 C52.85 97.95 52.9 99.09 52.96 100.26 C52.95 105.24 52.85 108.17 49.3 111.85 C46.51 113.91 43.72 115.69 40.69 117.38 C40 117.78 39.32 118.18 38.62 118.59 C20.8 128.47 -1.38 130.51 -21.07 125.48 C-30.86 122.14 -39.55 117.22 -47.31 110.38 C-47.91 109.9 -48.51 109.43 -49.13 108.94 C-59.93 99.62 -64.73 83 -66.31 69.38 C-66.59 50.9 -60.6 34.08 -48.7 19.79 C-35.89 6.84 -18.08 -0.27 0 0 Z " fill="#FBFCFD" transform="translate(577.3125,713.625)"/>
<path d="M0 0 C2.07 1.94 2.07 1.94 3 4 C1.96 8.54 -1.09 12.46 -3.62 16.31 C-4.05 16.96 -4.47 17.6 -4.9 18.27 C-5.93 19.85 -6.96 21.42 -8 23 C-13.5 22.44 -17.75 20.42 -22.62 18 C-24.12 17.27 -25.61 16.54 -27.1 15.81 C-27.75 15.49 -28.41 15.17 -29.08 14.83 C-35.3 12.14 -43.03 11.8 -49.49 13.75 C-53.4 15.58 -55.36 16.9 -57 21 C-57.58 23.96 -57.58 23.96 -57 27 C-52.93 32.26 -48.24 33.65 -42.12 35.5 C-40.73 35.95 -40.73 35.95 -39.3 36.4 C-36.54 37.28 -33.77 38.14 -31 39 C-5.98 46.76 -5.98 46.76 2 57 C2.51 57.64 3.01 58.27 3.54 58.93 C7.3 64.83 7.49 70.76 7.56 77.56 C7.58 78.45 7.59 79.34 7.61 80.25 C7.46 89.46 4.24 96.45 -2.02 103.15 C-13.11 113.52 -25.91 115.46 -40.68 115.21 C-57.22 114.61 -74.69 109.45 -87 98 C-87.7 96.68 -88.37 95.35 -89 94 C-88.42 93.33 -88.42 93.33 -87.82 92.65 C-86.07 90.65 -84.31 88.64 -82.56 86.62 C-81.95 85.93 -81.34 85.23 -80.71 84.51 C-80.13 83.84 -79.54 83.17 -78.94 82.48 C-78.4 81.86 -77.86 81.24 -77.31 80.6 C-75.92 79.02 -75.92 79.02 -75 77 C-70.83 77.56 -68.26 78.94 -64.81 81.31 C-56.71 86.56 -50 89.22 -40.38 89.88 C-39.67 89.92 -38.97 89.97 -38.24 90.02 C-32.59 90.27 -26.86 89.92 -22.03 86.68 C-19.84 83.11 -20.36 79 -21 75 C-26.12 66.46 -40.52 64.54 -49.56 62.06 C-61.33 58.8 -74.36 54.76 -81.34 43.92 C-85.86 35.24 -86.34 25.41 -84.35 15.89 C-80.95 5.62 -74.6 -2.02 -65 -7 C-42.91 -16.35 -20.07 -12.42 0 0 Z " fill="#FBFCFD" transform="translate(740,726)"/>
<path d="M0 0 C1.48 0.01 1.48 0.01 3 0.01 C4.07 0.01 5.14 0.02 6.24 0.02 C7.37 0.03 8.49 0.04 9.65 0.06 C11.34 0.06 11.34 0.06 13.06 0.06 C21.45 0.1 21.45 0.1 22.59 1.24 C22.71 4.23 22.77 7.19 22.79 10.17 C22.8 11.11 22.81 12.04 22.82 13.01 C22.85 16.12 22.88 19.23 22.9 22.34 C22.92 24.49 22.94 26.64 22.97 28.79 C23.02 34.47 23.07 40.14 23.12 45.81 C23.17 51.6 23.22 57.38 23.28 63.17 C23.39 74.53 23.49 85.88 23.59 97.24 C24.32 97.25 25.06 97.26 25.82 97.27 C32.75 97.37 39.68 97.47 46.61 97.58 C50.18 97.64 53.74 97.69 57.3 97.74 C61.4 97.8 65.49 97.86 69.58 97.93 C70.87 97.94 72.15 97.96 73.48 97.98 C74.66 98 75.84 98.02 77.06 98.04 C78.1 98.05 79.15 98.07 80.23 98.08 C82.59 98.24 82.59 98.24 83.59 99.24 C83.67 101.02 83.69 102.81 83.68 104.59 C83.68 106.21 83.68 106.21 83.67 107.86 C83.66 109.57 83.66 109.57 83.65 111.31 C83.64 112.45 83.64 113.59 83.63 114.76 C83.62 117.59 83.61 120.42 83.59 123.24 C72.26 123.27 60.93 123.28 49.61 123.29 C44.35 123.3 39.09 123.31 33.83 123.32 C28.76 123.33 23.69 123.34 18.62 123.34 C16.68 123.34 14.74 123.34 12.8 123.35 C10.1 123.36 7.39 123.36 4.69 123.36 C3.47 123.36 3.47 123.36 2.23 123.37 C-3.3 123.36 -3.3 123.36 -4.41 122.24 C-4.51 120.69 -4.55 119.14 -4.55 117.58 C-4.55 116.57 -4.56 115.56 -4.56 114.53 C-4.56 113.41 -4.56 112.29 -4.56 111.15 C-4.56 109.98 -4.57 108.81 -4.57 107.61 C-4.58 104.4 -4.58 101.19 -4.58 97.98 C-4.58 95.3 -4.59 92.62 -4.59 89.95 C-4.6 83.63 -4.6 77.32 -4.6 71.01 C-4.6 64.49 -4.61 57.97 -4.63 51.45 C-4.64 45.86 -4.64 40.27 -4.64 34.67 C-4.64 31.33 -4.65 27.99 -4.66 24.65 C-4.67 20.92 -4.66 17.2 -4.66 13.47 C-4.66 12.36 -4.67 11.24 -4.67 10.1 C-4.67 9.09 -4.67 8.07 -4.66 7.03 C-4.66 6.15 -4.66 5.27 -4.66 4.36 C-4.28 1.13 -3.17 0.32 0 0 Z " fill="#FBFCFD" transform="translate(255.414306640625,715.757080078125)"/>
<path d="M0 0 C9.43 5.33 15.51 13.28 19.7 23.11 C22.15 32.57 22.51 46.47 18.02 55.32 C11.39 65.02 4.07 71.69 -7.44 74.45 C-20.6 75.6 -30.18 73.76 -40.47 65.23 C-48.07 58.34 -52.74 49.53 -53.62 39.26 C-53.95 27.71 -50.11 17.1 -42.55 8.24 C-31.02 -2.48 -14.71 -6.24 0 0 Z " fill="#4A83FE" transform="translate(439.4375,741.55078125)"/>
<path d="M0 0 C3.03 2.77 5.3 5.33 7.38 8.88 C11.51 15.72 16.81 20.49 24 24 C24.8 24.43 25.6 24.87 26.43 25.32 C32.76 28.53 38.17 29.62 45.25 29.86 C48 30 48 30 51 31 C50.75 32.88 50.75 32.88 50 35 C48.25 36.06 48.25 36.06 46 37 C34.18 43.45 28.31 53.15 23 65 C22.67 65.33 22.34 65.66 22 66 C21.81 67.7 21.68 69.41 21.56 71.12 C21.19 75.69 20.45 79.66 19 84 C16.48 82.74 16.19 81.7 15 79.19 C14.5 78.16 14.5 78.16 14 77.11 C13.67 76.41 13.34 75.72 13 75 C12.34 73.67 11.67 72.33 11 71 C10.34 71 9.68 71 9 71 C9 70.34 9 69.68 9 69 C8.34 69 7.68 69 7 69 C5.38 67.62 5.38 67.62 4 66 C4 65.34 4 64.68 4 64 C3.04 63.81 3.04 63.81 2.06 63.62 C1.38 63.42 0.7 63.21 0 63 C-0.33 62.34 -0.66 61.68 -1 61 C-2.69 59.91 -4.43 58.9 -6.19 57.94 C-7.13 57.41 -8.07 56.88 -9.04 56.34 C-12.07 54.97 -14.72 54.46 -18 54 C-18.33 53.67 -18.66 53.34 -19 53 C-21.02 52.77 -23.04 52.59 -25.06 52.44 C-26.17 52.35 -27.27 52.27 -28.41 52.18 C-29.26 52.12 -30.12 52.06 -31 52 C-31 50.35 -31 48.7 -31 47 C-29.35 47 -27.7 47 -26 47 C-26 46.34 -26 45.68 -26 45 C-24.53 43.55 -24.53 43.55 -22.5 41.88 C-19.46 39.28 -16.5 36.65 -13.62 33.88 C-12.98 33.25 -12.33 32.63 -11.66 31.99 C-9.81 29.78 -8.93 27.72 -8 25 C-7.34 25 -6.68 25 -6 25 C-6 23.35 -6 21.7 -6 20 C-5.34 20 -4.68 20 -4 20 C-4.04 19.28 -4.08 18.56 -4.12 17.81 C-4 15 -4 15 -3.06 12.75 C-1.79 9.45 -1.53 6.4 -1.25 2.89 C-1 1 -1 1 0 0 Z " fill="#F7BE2F" transform="translate(858,547)"/>
<path d="M0 0 C0.25 6.55 0.25 6.55 -1.02 8.85 C-3.11 13.46 -1.59 19.11 -1 24 C-0.91 24.79 -0.82 25.58 -0.73 26.39 C0.32 32.64 3.41 37.77 6.54 43.18 C8 46 8 46 8 49 C9.48 49.5 9.48 49.5 11 50 C12.39 51.63 12.39 51.63 13.69 53.56 C14.12 54.2 14.56 54.84 15.01 55.5 C15.34 56 15.66 56.49 16 57 C15.01 57.5 15.01 57.5 14 58 C14 57.34 14 56.68 14 56 C9.71 55.85 5.42 55.77 1.12 55.69 C-0.68 55.62 -0.68 55.62 -2.52 55.56 C-10.72 55.45 -16.02 56.77 -23 61 C-24.75 61.79 -26.5 62.58 -28.25 63.38 C-32.49 65.46 -35.06 67.85 -37.84 71.64 C-38.23 72.09 -38.61 72.54 -39 73 C-39.66 73 -40.32 73 -41 73 C-41.33 70.36 -41.66 67.72 -42 65 C-41.34 65 -40.68 65 -40 65 C-40.16 64.24 -40.33 63.47 -40.5 62.69 C-40.92 59.6 -41.04 56.85 -41 53.75 C-40.94 48.44 -41.36 43.27 -42 38 C-42.66 38 -43.32 38 -44 38 C-44.33 36.91 -44.66 35.81 -45 34.69 C-47.2 28.73 -51.19 24.01 -55 19 C-55.66 18.01 -56.32 17.02 -57 16 C-54.22 14.61 -52.28 15.17 -49.19 15.5 C-40.53 16.24 -32.1 16.4 -24 13 C-21.19 12.88 -21.19 12.88 -19 13 C-19 12.34 -19 11.68 -19 11 C-18.24 10.73 -17.47 10.46 -16.69 10.19 C-14 9.2 -14 9.2 -12.44 7.38 C-11 6 -11 6 -7 6 C-6.75 5.38 -6.51 4.76 -6.25 4.12 C-4.84 1.72 -2.97 0 0 0 Z M-3 4 C-3.33 4.99 -3.66 5.98 -4 7 C-3.01 7 -2.02 7 -1 7 C-1 6.01 -1 5.02 -1 4 C-1.66 4 -2.32 4 -3 4 Z " fill="#F5BD2F" transform="translate(1164,806)"/>
<path d="M0 0 C1.09 0 1.09 0 2.2 0 C3.33 -0 3.33 -0 4.48 -0.01 C6.08 -0.02 7.68 -0.02 9.28 -0.01 C11.7 -0.01 14.11 -0.03 16.53 -0.06 C34.93 -0.14 34.93 -0.14 40.35 4.86 C43.6 8.56 44.45 12.3 44.15 17.16 C43.28 21.03 41.64 22.66 38.67 25.3 C33.61 27.52 29 27.58 23.59 27.53 C22.73 27.53 21.88 27.53 21 27.53 C19.2 27.53 17.4 27.52 15.61 27.51 C12.85 27.49 10.09 27.49 7.33 27.49 C5.58 27.48 3.83 27.48 2.09 27.47 C1.26 27.47 0.43 27.47 -0.43 27.47 C-6.22 27.42 -6.22 27.42 -7.33 26.3 C-7.58 22.33 -7.52 18.35 -7.52 14.37 C-7.53 13.24 -7.54 12.12 -7.56 10.96 C-7.56 9.89 -7.56 8.82 -7.56 7.71 C-7.57 6.73 -7.57 5.74 -7.57 4.72 C-7.08 -0.16 -4.24 0.06 0 0 Z " fill="#4A83FE" transform="translate(154.33204650878906,787.6964569091797)"/>
<path d="M0 0 C1.28 0 2.56 0.01 3.87 0.01 C5.75 -0.01 5.75 -0.01 7.66 -0.04 C16.23 -0.04 23.62 0.23 30.37 5.88 C32.96 10.48 33.24 14.16 32.31 19.32 C30.57 22.42 29.21 23.79 26.19 25.57 C17.93 27.73 9.22 27.48 0.75 27.45 C-0.34 27.45 -1.43 27.46 -2.56 27.46 C-3.59 27.46 -4.63 27.46 -5.69 27.46 C-6.63 27.45 -7.57 27.45 -8.53 27.45 C-10.69 27.32 -10.69 27.32 -11.69 26.32 C-11.94 22.35 -11.87 18.36 -11.88 14.38 C-11.89 13.26 -11.9 12.14 -11.91 10.98 C-11.92 9.91 -11.92 8.84 -11.92 7.73 C-11.92 6.74 -11.93 5.76 -11.93 4.74 C-11.29 -1.62 -4.91 0.03 0 0 Z " fill="#4A83FE" transform="translate(158.689453125,738.677734375)"/>
<path d="M0 0 C2.47 0.5 2.47 0.5 5 1 C4.67 1.66 4.34 2.32 4 3 C2.69 6.94 2.73 9.86 3 14 C3.66 14.66 4.32 15.32 5 16 C5.69 18.33 6.35 20.66 7 23 C7.75 25.34 7.75 25.34 9 27 C11.05 27.81 11.05 27.81 13 28 C13 28.99 13 29.98 13 31 C9.3 31.95 7.61 32.3 4.12 30.56 C3.42 30.05 2.72 29.53 2 29 C2 29.66 2 30.32 2 31 C1.37 30.99 0.74 30.98 0.09 30.97 C-6.53 31.2 -9.71 32.74 -14.31 37.5 C-16 39 -16 39 -19 39 C-20.13 34.48 -20.13 34.48 -19.49 32.16 C-18.48 27.74 -19.67 23.26 -21 19 C-22.47 16.71 -24.01 14.75 -25.86 12.75 C-26.23 12.18 -26.61 11.6 -27 11 C-26.67 9.68 -26.34 8.36 -26 7 C-21.71 7.66 -17.42 8.32 -13 9 C-13 8.34 -13 7.68 -13 7 C-9.54 6.5 -9.54 6.5 -6 6 C-6 5.34 -6 4.68 -6 4 C-4.68 4 -3.36 4 -2 4 C-1.34 2.68 -0.68 1.36 0 0 Z " fill="#F6BE2F" transform="translate(1267,500)"/>
<path d="M0 0 C210.87 0 421.74 0 639 0 C639 0.33 639 0.66 639 1 C428.13 1 217.26 1 0 1 C0 0.67 0 0.34 0 0 Z " fill="#000000" transform="translate(112,905)"/>
<path d="M0 0 C203.61 0 407.22 0 617 0 C617 0.33 617 0.66 617 1 C413.39 1 209.78 1 0 1 C0 0.67 0 0.34 0 0 Z " fill="#4A83FE" transform="translate(121,644)"/>
<path d="M0 0 C0.33 0.66 0.66 1.32 1 2 C1.99 1.67 2.98 1.34 4 1 C4.03 1.87 4.05 2.74 4.08 3.63 C4.47 12.6 4.47 12.6 9 20 C7.21 20 5.42 19.96 3.63 19.84 C0.48 20.03 -1.37 20.98 -4.12 22.5 C-8.69 25 -8.69 25 -12 25 C-11.98 24.05 -11.96 23.1 -11.94 22.12 C-11.77 19.09 -11.77 19.09 -13 17 C-13.12 16.24 -13.25 15.47 -13.38 14.69 C-13.88 11.88 -13.88 11.88 -15.62 9.31 C-16.31 8.17 -16.31 8.17 -17 7 C-16.67 6.34 -16.34 5.68 -16 5 C-12.99 4.68 -10 4.62 -6.98 4.54 C-3.43 3.9 -2.26 2.74 0 0 Z M1 3 C0.67 3.99 0.34 4.98 0 6 C0.99 6 1.98 6 3 6 C3 5.01 3 4.02 3 3 C2.34 3 1.68 3 1 3 Z " fill="#F2BB2E" transform="translate(880,772)"/>
<path d="M0 0 C0.33 0 0.66 0 1 0 C1 45.21 1 90.42 1 137 C0.67 137 0.34 137 0 137 C0 91.79 0 46.58 0 0 Z " fill="#000000" transform="translate(805,708)"/>
<path d="M0 0 C38.61 0 77.22 0 117 0 C117 0.33 117 0.66 117 1 C78.39 1 39.78 1 0 1 C0 0.67 0 0.34 0 0 Z " fill="#F9C030" transform="translate(1073,396)"/>
<path d="M0 0 C2.97 0 5.94 0 9 0 C9 0.33 9 0.66 9 1 C6.03 1 3.06 1 0 1 C0 0.67 0 0.34 0 0 Z " fill="#000000" transform="translate(1151,862)"/>
<path d="M0 0 C0.33 0 0.66 0 1 0 C1 2.64 1 5.28 1 8 C0.67 8 0.34 8 0 8 C0 5.36 0 2.72 0 0 Z " fill="#000000" transform="translate(1270,506)"/>
<path d="M0 0 C2.31 0 4.62 0 7 0 C7 0.33 7 0.66 7 1 C4.69 1 2.38 1 0 1 C0 0.67 0 0.34 0 0 Z " fill="#000000" transform="translate(1169,862)"/>
<path d="M0 0 C0.33 0 0.66 0 1 0 C1 1.98 1 3.96 1 6 C0.67 6 0.34 6 0 6 C0 4.02 0 2.04 0 0 Z " fill="#000000" transform="translate(1162,817)"/>
<path d="M0 0 C0.33 0 0.66 0 1 0 C1 1.65 1 3.3 1 5 C0.67 5 0.34 5 0 5 C0 3.35 0 1.7 0 0 Z " fill="#000000" transform="translate(802,856)"/>
<path d="M0 0 C1.65 0 3.3 0 5 0 C5 0.33 5 0.66 5 1 C3.35 1 1.7 1 0 1 C0 0.67 0 0.34 0 0 Z " fill="#000000" transform="translate(881,792)"/>
<path d="M0 0 C0.33 0 0.66 0 1 0 C1 1.65 1 3.3 1 5 C0.67 5 0.34 5 0 5 C0 3.35 0 1.7 0 0 Z " fill="#000000" transform="translate(802,691)"/>
<path d="M0 0 C4 1 4 1 4 1 Z " fill="#000000" transform="translate(1259,532)"/>
<path d="M0 0 C3 1 3 1 3 1 Z " fill="#000000" transform="translate(759,902)"/>
<path d="M0 0 C3 1 3 1 3 1 Z " fill="#000000" transform="translate(101,902)"/>
<path d="" fill="#000000" transform="translate(0,0)"/>
<path d="M0 0 C3 1 3 1 3 1 Z " fill="#000000" transform="translate(1277,532)"/>
<path d="M0 0 C2 1 2 1 2 1 Z " fill="#000000" transform="translate(90,897)"/>
<path d="" fill="#000000" transform="translate(0,0)"/>
<path d="M0 0 C2 1 2 1 2 1 Z " fill="#000000" transform="translate(844,602)"/>
<path d="M0 0 C2 1 2 1 2 1 Z " fill="#000000" transform="translate(837,600)"/>
<path d="" fill="#000000" transform="translate(0,0)"/>
<path d="" fill="#000000" transform="translate(0,0)"/>
<path d="" fill="#000000" transform="translate(0,0)"/>
<path d="" fill="#F9C030" transform="translate(0,0)"/>
<path d="" fill="#000000" transform="translate(0,0)"/>
<path d="" fill="#F9C030" transform="translate(0,0)"/>
<path d="" fill="#000000" transform="translate(0,0)"/>
<path d="" fill="#000000" transform="translate(0,0)"/>
<path d="" fill="#000000" transform="translate(0,0)"/>
<path d="" fill="#000000" transform="translate(0,0)"/>
<path d="" fill="#000000" transform="translate(0,0)"/>
<path d="" fill="#F9C030" transform="translate(0,0)"/>
<path d="" fill="#F9C030" transform="translate(0,0)"/>
<path d="" fill="#000000" transform="translate(0,0)"/>
<path d="" fill="#F9C030" transform="translate(0,0)"/>
<path d="" fill="#000000" transform="translate(0,0)"/>
<path d="" fill="#000000" transform="translate(0,0)"/>
<path d="" fill="#F9C030" transform="translate(0,0)"/>
<path d="" fill="#F9C030" transform="translate(0,0)"/>
<path d="" fill="#000000" transform="translate(0,0)"/>
<path d="" fill="#F9C030" transform="translate(0,0)"/>
<path d="" fill="#F9C030" transform="translate(0,0)"/>
<path d="" fill="#F9C030" transform="translate(0,0)"/>
<path d="" fill="#4A83FE" transform="translate(0,0)"/>
<path d="" fill="#F9C030" transform="translate(0,0)"/>
<path d="" fill="#000000" transform="translate(0,0)"/>
<path d="" fill="#000000" transform="translate(0,0)"/>
<path d="" fill="#4A83FE" transform="translate(0,0)"/>
<path d="" fill="#000000" transform="translate(0,0)"/>
<path d="" fill="#000000" transform="translate(0,0)"/>
<path d="" fill="#F9C030" transform="translate(0,0)"/>
<path d="" fill="#4A83FE" transform="translate(0,0)"/>
<path d="" fill="#F9C030" transform="translate(0,0)"/>
<path d="" fill="#000000" transform="translate(0,0)"/>
<path d="" fill="#F9C030" transform="translate(0,0)"/>
<path d="" fill="#F9C030" transform="translate(0,0)"/>
<path d="" fill="#000000" transform="translate(0,0)"/>
<path d="" fill="#000000" transform="translate(0,0)"/>
<path d="" fill="#000000" transform="translate(0,0)"/>
<path d="" fill="#000000" transform="translate(0,0)"/>
<path d="" fill="#000000" transform="translate(0,0)"/>
<path d="" fill="#000000" transform="translate(0,0)"/>
<path d="" fill="#F9C030" transform="translate(0,0)"/>
<path d="" fill="#000000" transform="translate(0,0)"/>
<path d="" fill="#F9C030" transform="translate(0,0)"/>
<path d="" fill="#F9C030" transform="translate(0,0)"/>
<path d="" fill="#F9C030" transform="translate(0,0)"/>
<path d="" fill="#000000" transform="translate(0,0)"/>
<path d="" fill="#F9C030" transform="translate(0,0)"/>
<path d="" fill="#000000" transform="translate(0,0)"/>
<path d="" fill="#F9C030" transform="translate(0,0)"/>
<path d="" fill="#000000" transform="translate(0,0)"/>
<path d="" fill="#F9C030" transform="translate(0,0)"/>
<path d="" fill="#000000" transform="translate(0,0)"/>
<path d="" fill="#000000" transform="translate(0,0)"/>
<path d="" fill="#000000" transform="translate(0,0)"/>
</svg>
